<svg width="102" height="120" viewBox="0 0 102 120" fill="none" xmlns="http://www.w3.org/2000/svg">
<path d="M52.0366 37.4869L58.9911 33.9713C60.1363 33.3924 60.6004 31.9845 60.0278 30.8269C59.4552 29.6693 58.0634 29.2001 56.9175 29.7786L49.9629 33.2942C48.8178 33.8731 48.3537 35.281 48.9263 36.4386C49.4991 37.5964 50.8916 38.0656 52.0366 37.4869Z" fill="white" fill-opacity="0.8"/>
<path d="M29.0997 33.9714L36.0542 37.487C37.1992 38.0657 38.5919 37.5967 39.1645 36.4387C39.7371 35.2811 39.273 33.8732 38.1278 33.2943L31.1733 29.7787C30.0283 29.1997 28.6356 29.6687 28.063 30.827C27.4904 31.9846 27.9545 33.3925 29.0997 33.9714Z" fill="white" fill-opacity="0.8"/>
<path d="M99.6818 88.8285C100.962 88.8285 102 87.7792 102 86.4847C102 85.1903 100.962 84.141 99.6818 84.141C98.4015 84.141 97.3636 85.1903 97.3636 86.4847C97.3636 87.7792 98.4015 88.8285 99.6818 88.8285Z" fill="white" fill-opacity="0.8"/>
<path d="M102 60C102 58.3252 100.502 57.8177 100.479 57.799C100.479 57.799 100.478 57.7987 100.478 57.7987C100.478 57.7987 100.478 57.7987 100.478 57.7987L71.0629 46.646C71.6191 45.352 73.9196 40.0068 74.0029 39.8046C74.0126 39.7809 74.0353 39.7256 74.0265 39.7492C74.0267 39.7485 74.027 39.7481 74.0272 39.7476L87.9363 3.18502C88.3056 2.214 87.9979 1.11314 87.1803 0.481498C86.3629 -0.14991 85.2314 -0.16116 84.4018 0.453608L64.1499 15.4686H23.9408L3.68916 0.453608C2.85925 -0.160925 1.72821 -0.149675 0.910588 0.481498C0.0931971 1.11314 -0.214658 2.21424 0.154629 3.18502C0.199833 3.30361 14.0751 39.7767 14.0644 39.7492C14.0997 39.843 15.4868 43.0589 41.9195 104.528C42.288 105.384 43.1351 105.938 44.0443 105.938C44.0475 105.938 44.0506 105.938 44.0536 105.938H80.5902L76.6409 116.851C76.3352 117.696 76.5348 118.644 77.1551 119.289C77.7711 119.93 78.7002 120.166 79.551 119.88L100.415 112.849C101.361 112.53 102 111.634 102 110.625V97.0316C102 95.7374 100.962 94.6878 99.6816 94.6878C98.4013 94.6878 97.3634 95.7374 97.3634 97.0316V108.936L82.6474 113.895C82.7035 113.747 82.8289 113.395 97.3634 73.2277V75.9378C97.3634 77.232 98.4013 78.2815 99.6816 78.2815C100.962 78.2815 102 77.232 102 75.9378V60H102ZM44.0455 97.716L23.2215 49.2926L42.406 68.6888C42.8588 69.1463 43.452 69.3753 44.0452 69.3753C44.6384 69.3753 45.2319 69.1463 45.6844 68.6888L64.8597 49.3019L64.8644 49.3036L44.0455 97.716ZM24.8528 20.1562H63.2384L69.2114 38.2732L44.0455 63.7167L18.8797 38.2732L24.8528 20.1562ZM72.0197 31.9675L67.6429 18.6922L80.7736 8.95675L72.0197 31.9675ZM20.4482 18.6922L16.0715 31.9675L7.31781 8.95675L20.4482 18.6922ZM47.5812 101.25L69.2116 50.9515L96.7148 61.3781L82.2867 101.25H47.5812Z" fill="white" fill-opacity="0.8"/>
</svg>
